<svg xmlns="http://www.w3.org/2000/svg" version="1.1" xmlns:xlink="http://www.w3.org/1999/xlink" xmlns:svgjs="http://svgjs.dev/svgjs" width="1000" height="1000" viewBox="0 0 1000 1000"><rect width="1000" height="1000" fill="#000000"></rect><g transform="matrix(0.7,0,0,0.7,149.57575757575756,282.1265587044535)"><svg viewBox="0 0 396 247" data-background-color="#212529" preserveAspectRatio="xMidYMid meet" height="623" width="1000" xmlns="http://www.w3.org/2000/svg" xmlns:xlink="http://www.w3.org/1999/xlink"><g id="tight-bounds" transform="matrix(1,0,0,1,0.2400000000000091,-0.09999999999999432)"><svg viewBox="0 0 395.52 247.2" height="247.2" width="395.52"><g><svg viewBox="0 0 395.52 247.2" height="247.2" width="395.52"><g transform="matrix(1,0,0,1,53.56,0)"><svg viewBox="0 0 288.4 247.2" height="247.2" width="288.4"><g><svg viewBox="0 0 288.4 247.2" height="247.2" width="288.4"><g><svg viewBox="0 0 288.4 247.2" height="247.2" width="288.4"><g><svg viewBox="0 0 288.4 247.2" height="247.2" width="288.4"><g><svg viewBox="0 0 288.4 247.2" height="247.2" width="288.4"><g><svg viewBox="0 0 288.4 247.2" height="247.2" width="288.4"><g transform="matrix(1,0,0,1,0,0)"><svg width="288.4" viewBox="3.05 -40.5 47.25 40.5" height="247.2" data-palette-color="#0dcaf0"><path d="M10.45 0L3.05 0 3.05-40.5 10.45-40.5 10.45-22.7 18.45-40.5 25.5-40.5 17.75-22.4 26.3 0 18.95 0 12.15-18.45 10.45-15.35 10.45 0ZM35.5 0L29.2 0 29.2-40.5 34.35-40.5 44.2-17.4 44.2-40.5 50.3-40.5 50.3 0 45.4 0 35.5-24.2 35.5 0Z" opacity="1" transform="matrix(1,0,0,1,0,0)" fill="#ffffff" class="undefined-text-0" data-fill-palette-color="primary" id="text-0"></path></svg></g></svg></g></svg></g></svg></g></svg></g></svg></g></svg></g></svg></g><defs></defs></svg><rect width="395.52" height="247.2" fill="none" stroke="none" visibility="hidden"></rect></g></svg></g></svg>