<svg id="Layer_1" xmlns="http://www.w3.org/2000/svg" xmlns:xlink="http://www.w3.org/1999/xlink" viewBox="0 0 144 144"><style>.st0,.st1{clip-path:url(#SVGID_2_);fill:#e1134f;stroke:#fff;stroke-width:2.88}.st1{clip-path:url(#SVGID_4_);fill:none;stroke-width:2.322}.st2,.st3{clip-path:url(#SVGID_6_);fill:#fff}.st3{clip-path:url(#SVGID_8_)}.st4,.st5{clip-path:url(#SVGID_10_);fill:#fff}.st5{clip-path:url(#SVGID_12_)}.st6,.st7{clip-path:url(#SVGID_14_);fill:#fff}.st7{clip-path:url(#SVGID_16_)}.st8,.st9{clip-path:url(#SVGID_18_);fill:#fff}.st9{clip-path:url(#SVGID_20_)}.st10{clip-path:url(#SVGID_22_);fill:#170000}.st11{clip-path:url(#SVGID_24_)}.st11,.st12,.st13{fill:#170000}.st12{clip-path:url(#SVGID_26_)}.st13{clip-path:url(#SVGID_28_)}.st14{clip-path:url(#SVGID_30_)}.st14,.st15,.st16{fill:#170000}.st15{clip-path:url(#SVGID_32_)}.st16{clip-path:url(#SVGID_34_)}.st17,.st18{clip-path:url(#SVGID_36_);fill:#e1134f;stroke:#fff;stroke-width:2.88}.st18{clip-path:url(#SVGID_38_);fill:none;stroke-width:2.322}.st19,.st20{clip-path:url(#SVGID_40_);fill:#fff}.st20{clip-path:url(#SVGID_42_)}.st21,.st22{clip-path:url(#SVGID_44_);fill:#fff}.st22{clip-path:url(#SVGID_46_)}.st23,.st24{clip-path:url(#SVGID_48_);fill:#fff}.st24{clip-path:url(#SVGID_50_)}.st25,.st26{clip-path:url(#SVGID_52_);fill:#fff}.st26{clip-path:url(#SVGID_54_)}.st27{clip-path:url(#SVGID_56_);fill:#170000}.st28{clip-path:url(#SVGID_58_)}.st28,.st29,.st30{fill:#170000}.st29{clip-path:url(#SVGID_60_)}.st30{clip-path:url(#SVGID_62_)}.st31{clip-path:url(#SVGID_64_)}.st31,.st32,.st33{fill:#170000}.st32{clip-path:url(#SVGID_66_)}.st33{clip-path:url(#SVGID_68_)}</style><defs><path id="SVGID_1_" d="M142.4 71.7c0 38.9-31.5 70.4-70.4 70.4S1.6 110.6 1.6 71.7 33.1 1.3 72 1.3c38.9 0 70.4 31.5 70.4 70.4"/></defs><clipPath id="SVGID_2_"><use xlink:href="#SVGID_1_" overflow="visible"/></clipPath><path class="st0" d="M142.4 71.7c0 38.9-31.5 70.4-70.4 70.4S1.6 110.6 1.6 71.7 33.1 1.3 72 1.3c38.9 0 70.4 31.5 70.4 70.4"/><defs><path id="SVGID_3_" d="M142.4 71.7c0 38.9-31.5 70.4-70.4 70.4S1.6 110.6 1.6 71.7 33.1 1.3 72 1.3c38.9 0 70.4 31.5 70.4 70.4"/></defs><clipPath id="SVGID_4_"><use xlink:href="#SVGID_3_" overflow="visible"/></clipPath><path class="st1" d="M42.4 109.1h89.9"/><defs><path id="SVGID_5_" d="M142.4 71.7c0 38.9-31.5 70.4-70.4 70.4S1.6 110.6 1.6 71.7 33.1 1.3 72 1.3c38.9 0 70.4 31.5 70.4 70.4"/></defs><clipPath id="SVGID_6_"><use xlink:href="#SVGID_5_" overflow="visible"/></clipPath><path class="st2" d="M20.7 49.8c0 5-3.3 8.4-7.7 8.4-4.3 0-7.7-3.3-7.7-8.3 0-5.7 3.8-8.6 7.8-8.6 4.4 0 7.6 3.5 7.6 8.5M9.2 50c0 4.6.6 7.4 3.9 7.4 3.8 0 4-3.3 4-7.5 0-2-.1-3.3-.2-3.7-.2-1.2-.5-4-3.8-4-3.5 0-3.9 3.3-3.9 7.8"/><defs><path id="SVGID_7_" d="M142.4 71.7c0 38.9-31.5 70.4-70.4 70.4S1.6 110.6 1.6 71.7 33.1 1.3 72 1.3c38.9 0 70.4 31.5 70.4 70.4"/></defs><clipPath id="SVGID_8_"><use xlink:href="#SVGID_7_" overflow="visible"/></clipPath><path class="st3" d="M23.5 34.3c1.3 0 1.7 0 2.9-.1v15h2l2.7-4.6 1.1-2h-3.1v-.8h7.1v.8h-2.6l-1.3 2-1.9 3.1 2.4 3.3 2.3 3.1 2.3 3h1.5v.9h-8.3v-.8h2.6l-1.6-2.4-3.5-4.8h-1.7v7.1H29v.9h-8.6v-.8H23V35.1h-2.6v-.8h3.1z"/><defs><path id="SVGID_9_" d="M142.4 71.7c0 38.9-31.5 70.4-70.4 70.4S1.6 110.6 1.6 71.7 33.1 1.3 72 1.3c38.9 0 70.4 31.5 70.4 70.4"/></defs><clipPath id="SVGID_10_"><use xlink:href="#SVGID_9_" overflow="visible"/></clipPath><path class="st4" d="M54.1 57.2v.8h-2.4c-.4 0-.8 0-1.2-.1-2-.2-2.3-1.5-2.5-2.2-.6.9-1.8 2.6-5.3 2.6-.6 0-2.1 0-3.1-1.1-.5-.5-1.2-1.6-1.2-3.8 0-1.3.3-2.3 1.1-3.2.9-.9 1.9-1.1 4.8-1.7 1.9-.4 2.8-.7 4-1.1v-1.2c0-2.3-.1-4-2.7-4s-2.6 1.6-2.7 2.7c0 .7-.1 1.7-1.6 1.7-.7 0-1.6 0-1.6-1.4 0-.4.1-.8.3-1.2.8-2 3.3-2.5 5.8-2.5 1.3 0 2.8.2 3.8.7 2.1 1 2.1 2.9 2.1 4.5V54c0 2.5.3 3.3 1.8 3.3l.6-.1zm-5.9-9l-3 .9c-1.7.5-3.2 1.2-3.2 4.5 0 1 0 3.5 2.3 3.5 1.2 0 1.9-.6 2.4-1.1 1.4-1.4 1.5-3.3 1.6-5v-2.8z"/><defs><path id="SVGID_11_" d="M142.4 71.7c0 38.9-31.5 70.4-70.4 70.4S1.6 110.6 1.6 71.7 33.1 1.3 72 1.3c38.9 0 70.4 31.5 70.4 70.4"/></defs><clipPath id="SVGID_12_"><use xlink:href="#SVGID_11_" overflow="visible"/></clipPath><path class="st5" d="M70.8 57.2h2.6v.8h-8.6v-.8h2.6v-8.7c0-3.4 0-4.4-.9-5.2-.5-.5-1.2-.5-1.5-.5-1.2 0-2.1.6-2.7 1.2-1.8 1.8-1.8 4.2-1.9 6.3v7h2.7v.7h-9v-.8H57V42.7h-2.9v-.8h3.2c1.5 0 2 0 3.2-.1v3.1c.9-1.3 2.1-3.3 5.8-3.3 4.5 0 4.5 3.5 4.5 5.3v10.3z"/><defs><path id="SVGID_13_" d="M142.4 71.7c0 38.9-31.5 70.4-70.4 70.4S1.6 110.6 1.6 71.7 33.1 1.3 72 1.3c38.9 0 70.4 31.5 70.4 70.4"/></defs><clipPath id="SVGID_14_"><use xlink:href="#SVGID_13_" overflow="visible"/></clipPath><path class="st6" d="M89.2 57.2v.8h-2.4c-.4 0-.8 0-1.2-.1-2-.2-2.3-1.5-2.5-2.2-.6.9-1.8 2.6-5.3 2.6-.6 0-2.1 0-3.1-1.1-.5-.5-1.2-1.6-1.2-3.8 0-1.3.3-2.3 1.1-3.2.9-.9 1.9-1.1 4.8-1.7 1.9-.4 2.9-.7 4-1.1v-1.2c0-2.3-.1-4-2.7-4s-2.6 1.6-2.7 2.7c0 .7-.1 1.7-1.6 1.7-.7 0-1.6 0-1.6-1.4 0-.4.1-.8.3-1.2.8-2 3.3-2.5 5.8-2.5 1.3 0 2.8.2 3.8.7 2.1 1 2.1 2.9 2.1 4.5V54c0 2.5.3 3.3 1.8 3.3l.6-.1zm-6-9l-3 .9c-1.7.5-3.2 1.2-3.2 4.5 0 1 0 3.5 2.3 3.5 1.2 0 1.9-.6 2.4-1.1 1.4-1.4 1.5-3.3 1.6-5l-.1-2.8z"/><defs><path id="SVGID_15_" d="M142.4 71.7c0 38.9-31.5 70.4-70.4 70.4S1.6 110.6 1.6 71.7 33.1 1.3 72 1.3c38.9 0 70.4 31.5 70.4 70.4"/></defs><clipPath id="SVGID_16_"><use xlink:href="#SVGID_15_" overflow="visible"/></clipPath><path class="st7" d="M103.4 41.6c1.1 0 2.1.6 2.1 2 0 1.3-1.1 1.3-1.2 1.3-.7 0-1-.5-1-1.2 0-.5-.2-.9-.7-.9-.5 0-.8.6-1 .8.4.9.8 1.5.8 2.7 0 3-2 5.4-5.6 5.4-2 0-3.1-.7-3.9-1.2-1.2.4-2.4 1-2.4 2.2 0 1.5 1.7 1.5 3.1 1.5.7 0 4.3-.1 5.2-.1 1.1 0 3.2 0 4.6 1.4.7.8 1.3 2.2 1.3 3.7 0 1.4-.6 2.9-1.6 3.9-1.9 1.9-5.3 1.9-6.3 1.9-6.2 0-7.8-2.8-7.8-4.4 0-2.4 2.3-3 3.3-3.2-.7-.3-1.5-.6-2.1-1.2-.7-.7-1.2-1.7-1.2-2.8 0-2.3 2-3.1 3.1-3.6-.4-.5-1.2-1.5-1.2-3.3 0-2.9 2.1-5.2 5.8-5.2 2.4 0 3.4.8 4.2 1.5.6-.4 1.2-1.2 2.5-1.2M91.5 60.7c0 2.7 2.5 3.5 5.5 3.5 4.2 0 6.6-1.6 6.6-3.9 0-.6-.2-1.3-.7-1.8-1-1-2.3-1-4.9-1-3.3 0-6.5.1-6.5 3.2m2.8-13.8c0 2 .4 4.1 2.5 4.1 2.4 0 2.4-2.7 2.4-5 0-1 0-3.8-2.4-3.8-2.4-.1-2.5 2.6-2.5 4.7"/><defs><path id="SVGID_17_" d="M142.4 71.7c0 38.9-31.5 70.4-70.4 70.4S1.6 110.6 1.6 71.7 33.1 1.3 72 1.3c38.9 0 70.4 31.5 70.4 70.4"/></defs><clipPath id="SVGID_18_"><use xlink:href="#SVGID_17_" overflow="visible"/></clipPath><path class="st8" d="M121.5 57.2v.8h-2.4c-.4 0-.8 0-1.2-.1-2-.2-2.3-1.5-2.5-2.2-.6.9-1.8 2.6-5.3 2.6-.6 0-2.1 0-3.1-1.1-.5-.5-1.2-1.6-1.2-3.8 0-1.3.3-2.3 1.1-3.2.9-.9 1.9-1.1 4.8-1.7 1.9-.4 2.8-.7 4-1.1v-1.2c0-2.3-.1-4-2.7-4s-2.6 1.6-2.7 2.7c0 .7-.1 1.7-1.6 1.7-.7 0-1.6 0-1.6-1.4 0-.4.1-.8.3-1.2.8-2 3.3-2.5 5.8-2.5 1.3 0 2.8.2 3.8.7 2.1 1 2.1 2.9 2.1 4.5V54c0 2.5.3 3.3 1.8 3.3l.6-.1zm-6-9l-3 .9c-1.7.5-3.2 1.2-3.2 4.5 0 1 0 3.5 2.3 3.5 1.2 0 1.9-.6 2.4-1.1 1.4-1.4 1.5-3.3 1.6-5l-.1-2.8z"/><defs><path id="SVGID_19_" d="M142.4 71.7c0 38.9-31.5 70.4-70.4 70.4S1.6 110.6 1.6 71.7 33.1 1.3 72 1.3c38.9 0 70.4 31.5 70.4 70.4"/></defs><clipPath id="SVGID_20_"><use xlink:href="#SVGID_19_" overflow="visible"/></clipPath><path class="st9" d="M137.7 57.2h3.6v.8h-9.6v-.8h2.6v-8.7c0-3.4 0-4.4-.9-5.2-.5-.5-1.2-.5-1.5-.5-1.2 0-2.1.6-2.7 1.2-1.8 1.8-1.8 4.2-1.9 6.3v7h2.7v.7h-9v-.8h2.9V42.7H121v-.8h3.2c1.5 0 2 0 3.2-.1v3.1c.9-1.3 2.1-3.3 5.8-3.3 4.5 0 4.5 3.5 4.5 5.3v10.3z"/><defs><path id="SVGID_21_" d="M142.4 71.7c0 38.9-31.5 70.4-70.4 70.4S1.6 110.6 1.6 71.7 33.1 1.3 72 1.3c38.9 0 70.4 31.5 70.4 70.4"/></defs><clipPath id="SVGID_22_"><use xlink:href="#SVGID_21_" overflow="visible"/></clipPath><path class="st10" d="M54.5 79.7c-.4 1.1-.8 2.3-1.9 3.5-1.5 1.5-3.5 2-5.2 2-4.7 0-7.7-3.6-7.7-8.3 0-4.7 3-8.5 7.9-8.5 4 0 6.4 2.5 6.4 4.7 0 1.2-.9 1.7-1.7 1.7-1.6 0-1.6-1.2-1.6-1.9 0-.5 0-1.1-.1-1.6-.4-1.4-1.6-2-2.8-2-4 0-4.3 5-4.3 7.5 0 3.4.9 7.4 4.8 7.4.9 0 1.6-.2 1.9-.3 2.4-.9 3.1-3 3.6-4.4l.7.2z"/><defs><path id="SVGID_23_" d="M142.4 71.7c0 38.9-31.5 70.4-70.4 70.4S1.6 110.6 1.6 71.7 33.1 1.3 72 1.3c38.9 0 70.4 31.5 70.4 70.4"/></defs><clipPath id="SVGID_24_"><use xlink:href="#SVGID_23_" overflow="visible"/></clipPath><path class="st11" d="M70.5 76.8c0 5-3.3 8.4-7.7 8.4-4.3 0-7.7-3.3-7.7-8.3 0-5.7 3.8-8.6 7.8-8.6 4.4-.1 7.6 3.4 7.6 8.5m-11.6.2c0 4.6.6 7.4 3.9 7.4 3.8 0 4-3.3 4-7.5 0-2-.1-3.3-.2-3.7-.2-1.2-.5-4-3.8-4-3.5 0-3.9 3.3-3.9 7.8"/><defs><path id="SVGID_25_" d="M142.4 71.7c0 38.9-31.5 70.4-70.4 70.4S1.6 110.6 1.6 71.7 33.1 1.3 72 1.3c38.9 0 70.4 31.5 70.4 70.4"/></defs><clipPath id="SVGID_26_"><use xlink:href="#SVGID_25_" overflow="visible"/></clipPath><path class="st12" d="M74 61.3c1.3 0 1.8 0 3-.1v22.9h2.6v.8h-8.9v-.8h2.9v-22h-2.9v-.8H74z"/><defs><path id="SVGID_27_" d="M142.4 71.7c0 38.9-31.5 70.4-70.4 70.4S1.6 110.6 1.6 71.7 33.1 1.3 72 1.3c38.9 0 70.4 31.5 70.4 70.4"/></defs><clipPath id="SVGID_28_"><use xlink:href="#SVGID_27_" overflow="visible"/></clipPath><path class="st13" d="M82.8 61.3c1.3 0 1.8 0 3-.1v22.9h2.6v.8h-8.9v-.8h2.9v-22h-2.9v-.8h3.3z"/><defs><path id="SVGID_29_" d="M142.4 71.7c0 38.9-31.5 70.4-70.4 70.4S1.6 110.6 1.6 71.7 33.1 1.3 72 1.3c38.9 0 70.4 31.5 70.4 70.4"/></defs><clipPath id="SVGID_30_"><use xlink:href="#SVGID_29_" overflow="visible"/></clipPath><path class="st14" d="M102.9 80.3c-1 2.3-2.4 5-7.1 5-1.4 0-3.5-.2-5.5-2.1-1.9-1.9-2.2-4.4-2.2-6.4 0-.9.1-1.6.2-2.3.3-1.5 1.2-3.1 2.3-4.1 1.2-1.2 3.1-2 5.2-2 2.2 0 3.9.9 5.1 2 1.8 1.8 2 3.9 2.1 5.4H91.8c0 1.9 0 3.9.7 5.6 1 2.6 3.2 2.8 4.2 2.8.9 0 1.6-.2 2.2-.5 1.9-1 2.7-2.8 3-3.8l1 .4zM99 74.8c0-1.3-.1-2.6-.6-3.7-.7-1.5-1.9-1.9-2.9-1.9-3.2 0-3.5 3.6-3.7 5.6H99z"/><defs><path id="SVGID_31_" d="M142.4 71.7c0 38.9-31.5 70.4-70.4 70.4S1.6 110.6 1.6 71.7 33.1 1.3 72 1.3c38.9 0 70.4 31.5 70.4 70.4"/></defs><clipPath id="SVGID_32_"><use xlink:href="#SVGID_31_" overflow="visible"/></clipPath><path class="st15" d="M117.2 68.6c1.1 0 2.1.6 2.1 2 0 1.3-1.1 1.3-1.2 1.3-.7 0-1-.5-1-1.2 0-.5-.2-.9-.7-.9-.5 0-.8.6-1 .8.4.9.8 1.5.8 2.7 0 3-2 5.4-5.6 5.4-2 0-3.1-.7-3.9-1.2-1.2.4-2.4 1-2.4 2.2 0 1.5 1.7 1.5 3.1 1.5.7 0 4.3-.1 5.2-.1 1.1 0 3.2 0 4.6 1.4.7.8 1.3 2.2 1.3 3.7 0 1.4-.6 2.9-1.6 3.9-1.9 1.9-5.3 1.9-6.3 1.9-6.2 0-7.8-2.8-7.8-4.4 0-2.4 2.3-3 3.3-3.2-.7-.3-1.5-.6-2.1-1.2-.7-.7-1.2-1.7-1.2-2.8 0-2.3 2-3.1 3.1-3.6-.4-.5-1.2-1.5-1.2-3.2 0-2.9 2.1-5.2 5.8-5.2 2.4 0 3.4.8 4.2 1.5.6-.5 1.2-1.3 2.5-1.3m-11.8 19c0 2.7 2.5 3.5 5.5 3.5 4.2 0 6.6-1.6 6.6-3.9 0-.6-.2-1.3-.7-1.8-1-1-2.3-1-4.9-1-3.4.1-6.5.2-6.5 3.2m2.8-13.7c0 2 .4 4.1 2.5 4.1 2.5 0 2.5-2.7 2.5-5 0-1 0-3.8-2.5-3.8-2.5-.1-2.5 2.6-2.5 4.7"/><defs><path id="SVGID_33_" d="M142.4 71.7c0 38.9-31.5 70.4-70.4 70.4S1.6 110.6 1.6 71.7 33.1 1.3 72 1.3c38.9 0 70.4 31.5 70.4 70.4"/></defs><clipPath id="SVGID_34_"><use xlink:href="#SVGID_33_" overflow="visible"/></clipPath><path class="st16" d="M133.7 80.3c-1 2.3-2.4 5-7.1 5-1.4 0-3.6-.2-5.5-2.1-1.9-1.9-2.2-4.4-2.2-6.4 0-.9.1-1.6.2-2.3.3-1.5 1.2-3.1 2.3-4.1 1.2-1.2 3.1-2 5.2-2 2.2 0 3.9.9 5.1 2 1.8 1.8 2 3.9 2.1 5.4h-11.2c0 1.9 0 3.9.7 5.6 1 2.6 3.2 2.8 4.2 2.8.9 0 1.6-.2 2.2-.5 1.9-1 2.7-2.8 3-3.8l1 .4zm-3.9-5.5c0-1.3-.1-2.6-.6-3.7-.7-1.5-1.9-1.9-2.9-1.9-3.2 0-3.5 3.6-3.7 5.6h7.2z"/><defs><path id="SVGID_35_" d="M438.7 373.2c0 59.2-48 107.2-107.2 107.2s-107.2-48-107.2-107.2S272.3 266 331.5 266s107.2 48 107.2 107.2"/></defs><clipPath id="SVGID_36_"><use xlink:href="#SVGID_35_" overflow="visible"/></clipPath><path class="st17" d="M438.7 373.2c0 59.2-48 107.2-107.2 107.2s-107.2-48-107.2-107.2S272.3 266 331.5 266s107.2 48 107.2 107.2"/><defs><path id="SVGID_37_" d="M438.7 373.2c0 59.2-48 107.2-107.2 107.2s-107.2-48-107.2-107.2S272.3 266 331.5 266s107.2 48 107.2 107.2"/></defs><clipPath id="SVGID_38_"><use xlink:href="#SVGID_37_" overflow="visible"/></clipPath><path class="st18" d="M286.5 430.2h136.7"/><defs><path id="SVGID_39_" d="M438.7 373.2c0 59.2-48 107.2-107.2 107.2s-107.2-48-107.2-107.2S272.3 266 331.5 266s107.2 48 107.2 107.2"/></defs><clipPath id="SVGID_40_"><use xlink:href="#SVGID_39_" overflow="visible"/></clipPath><path class="st19" d="M253.4 339.9c0 7.6-5.1 12.9-11.7 12.9-6.5 0-11.7-5-11.7-12.7 0-8.7 5.8-13 11.9-13.1 6.6-.1 11.5 5.2 11.5 12.9m-17.6.3c0 7 .9 11.2 5.9 11.2 5.8 0 6-5 6-11.5 0-3.1-.2-5-.2-5.7-.3-1.9-.7-6.1-5.7-6-5.3.2-6 5.1-6 12"/><defs><path id="SVGID_41_" d="M438.7 373.2c0 59.2-48 107.2-107.2 107.2s-107.2-48-107.2-107.2S272.3 266 331.5 266s107.2 48 107.2 107.2"/></defs><clipPath id="SVGID_42_"><use xlink:href="#SVGID_41_" overflow="visible"/></clipPath><path class="st20" d="M257.7 316.3c1.9 0 2.5 0 4.5-.2V339h3.1l4.1-7 1.7-3.1h-4.8v-1.2H277v1.2h-4l-1.9 3.1-2.9 4.7 3.7 5 3.5 4.7 3.5 4.6h2.2v1.2h-12.7V351h4l-2.4-3.6-5.2-7.2h-2.6V351h4v1.2h-13.1V351h4v-33.5h-4v-1.2h4.6z"/><defs><path id="SVGID_43_" d="M438.7 373.2c0 59.2-48 107.2-107.2 107.2s-107.2-48-107.2-107.2S272.3 266 331.5 266s107.2 48 107.2 107.2"/></defs><clipPath id="SVGID_44_"><use xlink:href="#SVGID_43_" overflow="visible"/></clipPath><path class="st21" d="M304.3 351v1.2h-3.7c-.7 0-1.2 0-1.8-.1-3-.4-3.5-2.2-3.8-3.4-1 1.4-2.8 4-8.1 4-.9 0-3.2 0-4.8-1.6-.8-.8-1.9-2.5-1.9-5.8 0-1.9.4-3.6 1.7-4.9 1.4-1.4 2.9-1.7 7.3-2.6 3-.6 4.3-1.1 6.1-1.7v-1.8c0-3.5-.1-6-4.1-6-4 0-4 2.5-4.1 4.1 0 1.1-.1 2.6-2.5 2.6-1.1 0-2.5 0-2.5-2.1 0-.7.1-1.3.4-1.9 1.2-3 5-3.8 8.8-3.8 2 0 4.2.3 5.8 1.1 3.2 1.6 3.2 4.4 3.2 6.8v11.2c0 3.8.4 5 2.8 5l1.2-.3zm-9.1-13.6l-4.6 1.4c-2.6.8-4.9 1.8-4.9 6.8 0 1.5 0 5.4 3.5 5.4 1.8 0 2.9-.9 3.6-1.6 2.2-2.2 2.3-5 2.4-7.6v-4.4z"/><defs><path id="SVGID_45_" d="M438.7 373.2c0 59.2-48 107.2-107.2 107.2s-107.2-48-107.2-107.2S272.3 266 331.5 266s107.2 48 107.2 107.2"/></defs><clipPath id="SVGID_46_"><use xlink:href="#SVGID_45_" overflow="visible"/></clipPath><path class="st22" d="M329.6 351h4v1.2h-13.1V351h4v-13.3c0-5.2 0-6.7-1.3-8-.8-.8-1.9-.8-2.4-.8-1.8 0-3.2.9-4.2 1.8-2.7 2.7-2.8 6.3-2.9 9.5v10.7h4.2v1.2h-13.7v-1.2h4.5v-22.1h-4.5v-1.2h4.8c2.2 0 3 0 4.8-.2v4.8c1.3-2 3.3-5 8.8-5 6.9 0 6.9 5.3 6.9 8.1V347l.1 4z"/><defs><path id="SVGID_47_" d="M438.7 373.2c0 59.2-48 107.2-107.2 107.2s-107.2-48-107.2-107.2S272.3 266 331.5 266s107.2 48 107.2 107.2"/></defs><clipPath id="SVGID_48_"><use xlink:href="#SVGID_47_" overflow="visible"/></clipPath><path class="st23" d="M357.6 351v1.2h-3.7c-.7 0-1.2 0-1.8-.1-3-.4-3.5-2.2-3.8-3.4-1 1.4-2.8 4-8 4-.9 0-3.2 0-4.8-1.6-.8-.8-1.9-2.5-1.9-5.8 0-1.9.4-3.6 1.7-4.9 1.4-1.4 2.9-1.7 7.3-2.6 3-.6 4.3-1.1 6.1-1.7v-1.8c0-3.5-.1-6-4.1-6-4 0-4 2.5-4.1 4.1 0 1.1-.1 2.6-2.5 2.6-1.1 0-2.5 0-2.5-2.1 0-.7.1-1.3.4-1.9 1.2-3 5-3.8 8.8-3.8 2 0 4.2.3 5.8 1.1 3.2 1.6 3.2 4.4 3.2 6.8v11.2c0 3.8.4 5 2.8 5l1.1-.3zm-9-13.6l-4.6 1.4c-2.6.8-4.9 1.8-4.9 6.8 0 1.5 0 5.4 3.5 5.4 1.8 0 2.9-.9 3.6-1.6 2.2-2.2 2.3-5 2.4-7.6v-4.4z"/><defs><path id="SVGID_49_" d="M438.7 373.2c0 59.2-48 107.2-107.2 107.2s-107.2-48-107.2-107.2S272.3 266 331.5 266s107.2 48 107.2 107.2"/></defs><clipPath id="SVGID_50_"><use xlink:href="#SVGID_49_" overflow="visible"/></clipPath><path class="st24" d="M379.3 327.5c1.7 0 3.2.9 3.2 3.1 0 2-1.6 2-1.8 2-1.1 0-1.6-.8-1.6-1.9 0-.7-.3-1.4-1-1.4-.8 0-1.2.9-1.5 1.3.7 1.3 1.2 2.3 1.2 4.2 0 4.6-3 8.2-8.5 8.2-3.1 0-4.7-1-5.9-1.8-1.9.7-3.6 1.6-3.6 3.4 0 2.3 2.6 2.3 4.8 2.3 1.1 0 6.6-.1 7.9-.1 1.7 0 4.9 0 7 2.1 1.1 1.2 2 3.3 2 5.6 0 2.2-.9 4.4-2.4 5.9-3 3-8 3-9.5 3-9.5 0-11.8-4.2-11.8-6.7 0-3.7 3.5-4.5 5-4.9-1.1-.4-2.3-.9-3.3-1.8-1-1-1.8-2.6-1.8-4.2 0-3.5 3-4.8 4.7-5.5-.7-.8-1.8-2.3-1.8-5 0-4.4 3.2-8 8.8-8 3.7 0 5.1 1.2 6.4 2.3.6-1 1.5-2.1 3.5-2.1m-18.1 28.9c0 4.1 3.9 5.4 8.4 5.4 6.4 0 10-2.5 10-5.9 0-.9-.2-1.9-1.1-2.8-1.5-1.5-3.6-1.5-7.4-1.5-5.1 0-9.9.1-9.9 4.8m4.2-20.9c0 3.1.6 6.2 3.8 6.2 3.7 0 3.7-4.1 3.7-7.6 0-1.6 0-5.8-3.7-5.8-3.7-.1-3.8 4-3.8 7.2"/><defs><path id="SVGID_51_" d="M438.7 373.2c0 59.2-48 107.2-107.2 107.2s-107.2-48-107.2-107.2S272.3 266 331.5 266s107.2 48 107.2 107.2"/></defs><clipPath id="SVGID_52_"><use xlink:href="#SVGID_51_" overflow="visible"/></clipPath><path class="st25" d="M406.8 351v1.2h-3.7c-.7 0-1.2 0-1.8-.1-3-.4-3.5-2.2-3.8-3.4-1 1.4-2.8 4-8.1 4-.9 0-3.2 0-4.8-1.6-.8-.8-1.9-2.5-1.9-5.8 0-1.9.4-3.6 1.7-4.9 1.4-1.4 2.9-1.7 7.3-2.6 3-.6 4.3-1.1 6.1-1.7v-1.8c0-3.5-.1-6-4.1-6-4 0-4 2.5-4.1 4.1 0 1.1-.1 2.6-2.5 2.6-1.1 0-2.5 0-2.5-2.1 0-.7.1-1.3.4-1.9 1.2-3 5-3.8 8.8-3.8 2 0 4.2.3 5.8 1.1 3.2 1.6 3.2 4.4 3.2 6.8v11.2c0 3.8.4 5 2.8 5l1.2-.3zm-9.1-13.6l-4.6 1.4c-2.6.8-4.9 1.8-4.9 6.8 0 1.5 0 5.4 3.5 5.4 1.8 0 2.9-.9 3.6-1.6 2.2-2.2 2.3-5 2.4-7.6v-4.4z"/><defs><path id="SVGID_53_" d="M438.7 373.2c0 59.2-48 107.2-107.2 107.2s-107.2-48-107.2-107.2S272.3 266 331.5 266s107.2 48 107.2 107.2"/></defs><clipPath id="SVGID_54_"><use xlink:href="#SVGID_53_" overflow="visible"/></clipPath><path class="st26" d="M431.5 351h5.4v1.2h-14.6V351h4v-13.3c0-5.2 0-6.7-1.3-8-.8-.8-1.9-.8-2.4-.8-1.8 0-3.2.9-4.2 1.8-2.7 2.7-2.8 6.3-2.9 9.5v10.7h4.2v1.2H406v-1.2h4.5v-22.1H406v-1.2h4.9c2.2 0 3 0 4.8-.2v4.8c1.3-2 3.3-5 8.8-5 6.9 0 6.9 5.3 6.9 8.1V347l.1 4z"/><defs><path id="SVGID_55_" d="M438.7 373.2c0 59.2-48 107.2-107.2 107.2s-107.2-48-107.2-107.2S272.3 266 331.5 266s107.2 48 107.2 107.2"/></defs><clipPath id="SVGID_56_"><use xlink:href="#SVGID_55_" overflow="visible"/></clipPath><path class="st27" d="M304.8 385.4c-.7 1.7-1.3 3.6-3 5.3-2.3 2.3-5.3 3.1-7.9 3.1-7.1 0-11.8-5.5-11.8-12.6 0-7.2 4.5-13 12.1-13 6.1 0 9.7 3.8 9.7 7.1 0 1.8-1.3 2.6-2.6 2.6-2.4 0-2.4-1.9-2.5-2.9 0-.8 0-1.7-.2-2.5-.6-2.1-2.5-3-4.3-3-6.1 0-6.5 7.6-6.5 11.4 0 5.1 1.3 11.3 7.3 11.3 1.4 0 2.4-.3 3-.5 3.7-1.4 4.8-4.6 5.5-6.7l1.2.4z"/><defs><path id="SVGID_57_" d="M438.7 373.2c0 59.2-48 107.2-107.2 107.2s-107.2-48-107.2-107.2S272.3 266 331.5 266s107.2 48 107.2 107.2"/></defs><clipPath id="SVGID_58_"><use xlink:href="#SVGID_57_" overflow="visible"/></clipPath><path class="st28" d="M329.2 380.9c0 7.6-5 12.9-11.7 12.9-6.5 0-11.7-5-11.7-12.7 0-8.7 5.8-13 11.9-13.1 6.6-.1 11.5 5.2 11.5 12.9m-17.7.3c0 7 .9 11.2 5.9 11.2 5.8 0 6-5 6-11.5 0-3.1-.2-5-.2-5.7-.2-1.9-.7-6.1-5.7-6-5.3.2-6 5.2-6 12"/><defs><path id="SVGID_59_" d="M438.7 373.2c0 59.2-48 107.2-107.2 107.2s-107.2-48-107.2-107.2S272.3 266 331.5 266s107.2 48 107.2 107.2"/></defs><clipPath id="SVGID_60_"><use xlink:href="#SVGID_59_" overflow="visible"/></clipPath><path class="st29" d="M334.4 357.3c2 0 2.7 0 4.6-.2v35h4v1.2h-13.6v-1.2h4.4v-33.5h-4.4v-1.2l5-.1z"/><defs><path id="SVGID_61_" d="M438.7 373.2c0 59.2-48 107.2-107.2 107.2s-107.2-48-107.2-107.2S272.3 266 331.5 266s107.2 48 107.2 107.2"/></defs><clipPath id="SVGID_62_"><use xlink:href="#SVGID_61_" overflow="visible"/></clipPath><path class="st30" d="M347.9 357.3c2 0 2.7 0 4.6-.2v35h4v1.2H343v-1.2h4.4v-33.5H343v-1.2l4.9-.1z"/><defs><path id="SVGID_63_" d="M438.7 373.2c0 59.2-48 107.2-107.2 107.2s-107.2-48-107.2-107.2S272.3 266 331.5 266s107.2 48 107.2 107.2"/></defs><clipPath id="SVGID_64_"><use xlink:href="#SVGID_63_" overflow="visible"/></clipPath><path class="st31" d="M378.5 386.2c-1.5 3.5-3.6 7.6-10.8 7.6-2.2 0-5.4-.3-8.3-3.2-2.9-3-3.4-6.7-3.4-9.7 0-1.3.1-2.5.4-3.6.5-2.4 1.8-4.7 3.5-6.3 1.9-1.8 4.8-3.1 7.9-3.1 3.3 0 6 1.3 7.8 3.1 2.8 2.8 3 6 3.2 8.3h-17c0 2.9 0 6 1.1 8.6 1.5 3.9 4.9 4.3 6.4 4.3 1.3 0 2.5-.4 3.4-.8 3-1.5 4.1-4.3 4.6-5.8l1.2.6zm-6-8.2c0-1.9-.1-3.9-.9-5.7-1.1-2.4-3-2.9-4.4-2.9-4.9 0-5.3 5.5-5.6 8.5h10.9z"/><defs><path id="SVGID_65_" d="M438.7 373.2c0 59.2-48 107.2-107.2 107.2s-107.2-48-107.2-107.2S272.3 266 331.5 266s107.2 48 107.2 107.2"/></defs><clipPath id="SVGID_66_"><use xlink:href="#SVGID_65_" overflow="visible"/></clipPath><path class="st32" d="M400.3 368.5c1.7 0 3.2.9 3.2 3 0 2-1.6 2-1.8 2-1.1 0-1.6-.8-1.6-1.9 0-.7-.3-1.4-1-1.4-.8 0-1.2.9-1.5 1.3.7 1.3 1.2 2.3 1.2 4.2 0 4.6-3 8.2-8.5 8.2-3.1 0-4.7-1-5.9-1.8-1.9.7-3.6 1.6-3.6 3.4 0 2.4 2.6 2.4 4.8 2.4 1.1 0 6.6-.2 7.9-.2 1.7 0 4.9 0 7 2.1 1.1 1.2 2 3.3 2 5.6 0 2.2-.9 4.4-2.4 5.9-3 3-8.1 3-9.5 3-9.5 0-11.8-4.2-11.8-6.7 0-3.7 3.5-4.5 5-4.9-1.1-.4-2.3-.9-3.3-1.8-1-1-1.8-2.6-1.8-4.2 0-3.5 3-4.8 4.7-5.5-.7-.8-1.8-2.3-1.8-4.9 0-4.4 3.2-8 8.8-8 3.7 0 5.1 1.2 6.4 2.3.6-.9 1.5-2.1 3.5-2.1m-18 29c0 4.1 3.9 5.4 8.4 5.4 6.4 0 10-2.5 10-5.9 0-.9-.3-1.9-1.1-2.8-1.5-1.5-3.6-1.5-7.4-1.5-5.2 0-9.9.1-9.9 4.8m4.2-21c0 3.1.6 6.2 3.8 6.2 3.7 0 3.7-4.1 3.7-7.6 0-1.6 0-5.8-3.7-5.8s-3.8 4-3.8 7.2"/><defs><path id="SVGID_67_" d="M438.7 373.2c0 59.2-48 107.2-107.2 107.2s-107.2-48-107.2-107.2S272.3 266 331.5 266s107.2 48 107.2 107.2"/></defs><clipPath id="SVGID_68_"><use xlink:href="#SVGID_67_" overflow="visible"/></clipPath><path class="st33" d="M425.3 386.2c-1.5 3.5-3.6 7.6-10.8 7.6-2.2 0-5.4-.3-8.3-3.2-2.9-3-3.4-6.7-3.4-9.7 0-1.3.1-2.5.4-3.6.5-2.4 1.8-4.7 3.5-6.3 1.9-1.8 4.8-3.1 7.9-3.1 3.3 0 6 1.3 7.8 3.1 2.8 2.8 3 6 3.2 8.3h-17c0 2.9 0 6 1.1 8.6 1.5 3.9 4.9 4.3 6.4 4.3 1.3 0 2.5-.4 3.4-.8 3-1.5 4.1-4.3 4.6-5.8l1.2.6zm-5.9-8.2c0-1.9-.1-3.9-.9-5.7-1.1-2.4-3-2.9-4.4-2.9-4.9 0-5.3 5.5-5.6 8.5h10.9z"/></svg>